<svg xmlns="http://www.w3.org/2000/svg" width="770" height="408" viewBox="0 0 770 408" font-family="-apple-system,BlinkMacSystemFont,Segoe UI,Helvetica,Arial,sans-serif">
<rect width="770" height="408" fill="#ffffff"/>
<text x="24" y="36" font-size="14" font-weight="600" fill="#1f2328">AI policy coverage by domain</text>
<text x="24" y="54" font-size="11" fill="#656d76">10 projects &#183; CHAOSS Consent Policy Specificity</text>
<rect x="454" y="26" width="10" height="10" rx="2" fill="#2da44e"/>
<text x="469" y="35" font-size="11" fill="#656d76">addressed</text>
<rect x="544" y="26" width="10" height="10" rx="2" fill="#d4a72c"/>
<text x="559" y="35" font-size="11" fill="#656d76">partial</text>
<rect x="634" y="26" width="10" height="10" rx="2" fill="#d0d7de"/>
<text x="649" y="35" font-size="11" fill="#656d76">not addressed</text>
<text x="224" y="92" font-size="12" fill="#1f2328" text-anchor="end">Code contributions</text>
<rect x="234.0" y="78" width="423.0" height="20" fill="#2da44e"/>
<text x="445.5" y="92" font-size="11" fill="#ffffff" text-anchor="middle">9</text>
<rect x="657.0" y="78" width="47.0" height="20" fill="#d0d7de"/>
<text x="680.5" y="92" font-size="11" fill="#57606a" text-anchor="middle">1</text>
<text x="714" y="92" font-size="11" fill="#656d76">9/10</text>
<text x="224" y="126" font-size="12" fill="#1f2328" text-anchor="end">Notetaker / meeting bots</text>
<rect x="234.0" y="112" width="470.0" height="20" fill="#d0d7de"/>
<text x="469.0" y="126" font-size="11" fill="#57606a" text-anchor="middle">10</text>
<text x="714" y="126" font-size="11" fill="#656d76">0/10</text>
<text x="224" y="160" font-size="12" fill="#1f2328" text-anchor="end">Content</text>
<rect x="234.0" y="146" width="94.0" height="20" fill="#2da44e"/>
<text x="281.0" y="160" font-size="11" fill="#ffffff" text-anchor="middle">2</text>
<rect x="328.0" y="146" width="141.0" height="20" fill="#d4a72c"/>
<text x="398.5" y="160" font-size="11" fill="#ffffff" text-anchor="middle">3</text>
<rect x="469.0" y="146" width="235.0" height="20" fill="#d0d7de"/>
<text x="586.5" y="160" font-size="11" fill="#57606a" text-anchor="middle">5</text>
<text x="714" y="160" font-size="11" fill="#656d76">5/10</text>
<text x="224" y="194" font-size="12" fill="#1f2328" text-anchor="end">Moderation actions</text>
<rect x="234.0" y="180" width="470.0" height="20" fill="#d0d7de"/>
<text x="469.0" y="194" font-size="11" fill="#57606a" text-anchor="middle">10</text>
<text x="714" y="194" font-size="11" fill="#656d76">0/10</text>
<text x="224" y="228" font-size="12" fill="#1f2328" text-anchor="end">Review</text>
<rect x="234.0" y="214" width="47.0" height="20" fill="#2da44e"/>
<text x="257.5" y="228" font-size="11" fill="#ffffff" text-anchor="middle">1</text>
<rect x="281.0" y="214" width="141.0" height="20" fill="#d4a72c"/>
<text x="351.5" y="228" font-size="11" fill="#ffffff" text-anchor="middle">3</text>
<rect x="422.0" y="214" width="282.0" height="20" fill="#d0d7de"/>
<text x="563.0" y="228" font-size="11" fill="#57606a" text-anchor="middle">6</text>
<text x="714" y="228" font-size="11" fill="#656d76">4/10</text>
<text x="224" y="262" font-size="12" fill="#1f2328" text-anchor="end">Autonomous / agentic use</text>
<rect x="234.0" y="248" width="94.0" height="20" fill="#2da44e"/>
<text x="281.0" y="262" font-size="11" fill="#ffffff" text-anchor="middle">2</text>
<rect x="328.0" y="248" width="141.0" height="20" fill="#d4a72c"/>
<text x="398.5" y="262" font-size="11" fill="#ffffff" text-anchor="middle">3</text>
<rect x="469.0" y="248" width="235.0" height="20" fill="#d0d7de"/>
<text x="586.5" y="262" font-size="11" fill="#57606a" text-anchor="middle">5</text>
<text x="714" y="262" font-size="11" fill="#656d76">5/10</text>
<text x="224" y="296" font-size="12" fill="#1f2328" text-anchor="end">Environmental Impact</text>
<rect x="234.0" y="282" width="470.0" height="20" fill="#d0d7de"/>
<text x="469.0" y="296" font-size="11" fill="#57606a" text-anchor="middle">10</text>
<text x="714" y="296" font-size="11" fill="#656d76">0/10</text>
<text x="224" y="330" font-size="12" fill="#1f2328" text-anchor="end">Infrastructure strain</text>
<rect x="234.0" y="316" width="470.0" height="20" fill="#d0d7de"/>
<text x="469.0" y="330" font-size="11" fill="#57606a" text-anchor="middle">10</text>
<text x="714" y="330" font-size="11" fill="#656d76">0/10</text>
<text x="224" y="364" font-size="12" fill="#1f2328" text-anchor="end">Data use for training</text>
<rect x="234.0" y="350" width="470.0" height="20" fill="#d0d7de"/>
<text x="469.0" y="364" font-size="11" fill="#57606a" text-anchor="middle">10</text>
<text x="714" y="364" font-size="11" fill="#656d76">0/10</text>
</svg>
